#!OML:ASF H:\LiuWeirdWalks\Patient Classification 1\Patient 1\Session 1\male.ASF
:FULLY-SPECIFIED
:DEGREES
313
root 1.16522 17.198 -4.51996 7.1642 8.24322 -1.55198
lowerback 19.8345 -1.74209 -6.95563
upperback -0.196345 -3.65534 2.26576
thorax -10.7874 -1.26267 7.54421
lowerneck -21.4253 1.37135 6.65826
upperneck 14.4847 0.299956 -2.35121
head 8.00588 0.277763 -1.82775
rclavicle 3.21037e-014 3.57812e-015
rhumerus -50.0826 5.03197 -75.2945
rradius 79.3198
rwrist -10.9663
rhand -18.7086 -5.01925
rfingers 7.12502
rthumb 7.58638 -34.8632
lclavicle 3.21037e-014 3.57812e-015
lhumerus -18.2446 -9.73976 72.6776
lradius 63.5205
lwrist 10.518
lhand -23.8536 -14.1728
lfingers 7.12502
lthumb 2.61877 15.7909
rfemur -68.5555 -6.48566 11.9071
rtibia 64.1864
rfoot 14.3648 -10.4824
rtoes -0.161616
lfemur -3.62083 -0.869851 -21.4556
ltibia 36.629
lfoot -18.7522 18.3546
ltoes -22.6654
314
root 1.16942 17.2904 -4.23684 6.95166 8.10561 -1.73075
lowerback 19.4052 -1.86096 -6.71539
upperback -0.315486 -3.73348 2.27308
thorax -10.6803 -1.3173 7.40841
lowerneck -21.5916 1.44669 6.7854
upperneck 14.7849 0.392387 -2.56174
head 8.14008 0.31092 -1.91043
rclavicle -7.10655e-014 2.10712e-014
rhumerus -51.6821 5.74758 -75.063
rradius 80.5591
rwrist -10.8231
rhand -18.4652 -5.01305
rfingers 7.12502
rthumb 7.82131 -34.8484
lclavicle -7.10655e-014 2.10712e-014
lhumerus -19.5335 -9.88719 72.3042
lradius 63.8326
lwrist 10.9308
lhand -23.9616 -14.1459
lfingers 7.12502
lthumb 2.51447 15.8191
rfemur -68.6706 -6.75163 11.9795
rtibia 66.8375
rfoot 15.3843 -10.5974
rtoes 1.10294
lfemur -0.901725 -1.83153 -21.503
ltibia 33.5747
lfoot -16.5115 18.7049
ltoes -23.2117
315
root 1.17583 17.3923 -3.94454 6.65031 7.84501 -1.97461
lowerback 18.9603 -1.92851 -6.43386
upperback -0.405191 -3.73226 2.3029
thorax -10.5452 -1.33839 7.25051
lowerneck -21.7411 1.50748 6.85818
upperneck 15.1587 0.478968 -2.74672
head 8.29671 0.341734 -1.97737
rclavicle 2.56432e-014 -7.95139e-015
rhumerus -53.2707 6.45524 -74.8203
rradius 81.6449
rwrist -10.7805
rhand -18.1408 -4.99815
rfingers 7.12502
rthumb 8.13447 -34.8216
lclavicle 2.56432e-014 -7.95139e-015
lhumerus -20.871 -10.0026 72.0278
lradius 63.991
lwrist 11.2925
lhand -24.0751 -14.2067
lfingers 7.12502
lthumb 2.40481 15.7595
rfemur -68.5505 -6.88951 12.128
rtibia 69.552
rfoot 16.2876 -10.6814
rtoes 2.38969
lfemur 1.88673 -2.74302 -21.5795
ltibia 30.5643
lfoot -13.7873 18.9365
ltoes -23.8681
316
root 1.18415 17.5036 -3.64438 6.27189 7.46194 -2.25451
lowerback 18.5037 -1.94224 -6.14775
upperback -0.46515 -3.6575 2.35483
thorax -10.38 -1.32636 7.09392
lowerneck -21.8753 1.566 6.92482
upperneck 15.5601 0.572796 -2.96076
head 8.46145 0.372463 -2.0529
rclavicle -1.22253e-014 -9.93923e-015
rhumerus -54.8216 7.14741 -74.5673
rradius 82.5603
rwrist -10.8589
rhand -17.7495 -5.01707
rfingers 7.12502
rthumb 8.51206 -34.8255
lclavicle -1.22253e-014 -9.93923e-015
lhumerus -22.2557 -10.0743 71.8552
lradius 64.0043
lwrist 11.5111
lhand -24.1966 -14.3684
lfingers 7.12502
lthumb 2.28745 15.5991
rfemur -68.1687 -6.90998 12.3216
rtibia 72.2655
rfoot 17.117 -10.6625
rtoes 3.66373
lfemur 4.66398 -3.52271 -21.7036
ltibia 27.6987
lfoot -10.5661 19.0135
ltoes -24.5901
317
root 1.19315 17.6247 -3.33754 5.83147 6.96851 -2.55492
lowerback 18.0482 -1.90552 -5.87421
upperback -0.508425 -3.51917 2.4252
thorax -10.2036 -1.28328 6.94949
lowerneck -21.9555 1.61229 6.94646
upperneck 15.9891 0.665683 -3.15413
head 8.62718 0.402368 -2.1148
rclavicle 2.65874e-014 -7.95139e-016
rhumerus -56.311 7.81684 -74.3145
rradius 83.261
rwrist -11.0531
rhand -17.3191 -5.05111
rfingers 7.12502
rthumb 8.92742 -34.8422
lclavicle 2.65874e-014 -7.95139e-016
lhumerus -23.679 -10.1091 71.7774
lradius 63.8616
lwrist 11.566
lhand -24.3009 -14.6223
lfingers 7.12502
lthumb 2.18673 15.3462
rfemur -67.502 -6.81264 12.5367
rtibia 74.91
rfoot 17.9256 -10.512
rtoes 4.89925
lfemur 7.31748 -4.09731 -21.8613
ltibia 25.1038
lfoot -6.82493 18.8924
ltoes -25.2293
318
root 1.20118 17.7557 -3.02754 5.37833 6.40211 -2.86916
lowerback 17.5864 -1.83145 -5.61838
upperback -0.550916 -3.33569 2.5135
thorax -10.0264 -1.21654 6.82517
lowerneck -22.0183 1.65856 6.95465
upperneck 16.4583 0.767096 -3.35157
head 8.8052 0.435006 -2.17557
rclavicle -1.07344e-014 1.35174e-014
rhumerus -57.6956 8.44855 -74.0817
rradius 83.7088
rwrist -11.3573
rhand -16.9106 -5.14848
rfingers 7.12502
rthumb 9.32162 -34.9224
lclavicle -1.07344e-014 1.35174e-014
lhumerus -25.1517 -10.0924 71.782
lradius 63.5887
lwrist 11.3971
lhand -24.3773 -14.9703
lfingers 7.12502
lthumb 2.11301 14.999
rfemur -66.567 -6.6193 12.7672
rtibia 77.4137
rfoot 18.7713 -10.2126
rtoes 6.03502
lfemur 9.66453 -4.43261 -22.0127
ltibia 22.9385
lfoot -2.59869 18.5635
ltoes -25.701
319
root 1.20769 17.8962 -2.71548 4.94496 5.8174 -3.17017
lowerback 17.1102 -1.74085 -5.39194
upperback -0.602864 -3.13776 2.60946
thorax -9.85028 -1.14008 6.72406
lowerneck -22.0557 1.69946 6.96035
upperneck 16.9963 0.863242 -3.53399
head 9.00345 0.467125 -2.23265
rclavicle 8.94531e-015 1.59028e-014
rhumerus -58.964 9.02678 -73.8857
rradius 83.887
rwrist -11.7271
rhand -16.5364 -5.23345
rfingers 7.12502
rthumb 9.68263 -34.9909
lclavicle 8.94531e-015 1.59028e-014
lhumerus -26.6591 -10.0168 71.8448
lradius 63.1843
lwrist 10.9948
lhand -24.413 -15.3668
lfingers 7.12502
lthumb 2.07848 14.6028
rfemur -65.3573 -6.37963 12.9809
rtibia 79.7187
rfoot 19.66 -9.78763
rtoes 7.10414
lfemur 11.5416 -4.53248 -22.1414
ltibia 21.3837
lfoot 2.03405 18.0444
ltoes -25.9345
320
root 1.21121 18.0457 -2.40388 4.55632 5.26308 -3.46917
lowerback 16.6379 -1.65455 -5.18487
upperback -0.678869 -2.95151 2.7152
thorax -9.69859 -1.06541 6.65101
lowerneck -22.0601 1.73903 6.95386
upperneck 17.5571 0.959755 -3.68721
head 9.20512 0.501756 -2.27822
rclavicle 1.0635e-014 -3.06128e-014
rhumerus -60.0877 9.55172 -73.7497
rradius 83.7765
rwrist -12.1167
rhand -16.2328 -5.33613
rfingers 7.12502
rthumb 9.97559 -35.0797
lclavicle 1.0635e-014 -3.06128e-014
lhumerus -28.1981 -9.8589 71.9405
lradius 62.6717
lwrist 10.4001
lhand -24.3831 -15.7146
lfingers 7.12502
lthumb 2.10737 14.2548
rfemur -63.8747 -6.10839 13.1929
rtibia 81.7686
rfoot 20.6063 -9.25356
rtoes 8.05996
lfemur 12.7867 -4.40236 -22.1825
ltibia 20.6247
lfoot 6.94508 17.3533
ltoes -25.9352
321
root 1.21111 18.2026 -2.09376 4.22074 4.81572 -3.76614
lowerback 16.1656 -1.59873 -4.97881
upperback -0.765731 -2.80791 2.82539
thorax -9.55114 -1.00998 6.59535
lowerneck -22.0443 1.76984 6.94535
upperneck 18.1108 1.04362 -3.82079
head 9.40131 0.532033 -2.31869
rclavicle -4.14715e-014 1.8487e-014
rhumerus -61.0478 9.9948 -73.6837
rradius 83.3961
rwrist -12.4664
rhand -16.0166 -5.446
rfingers 7.12502
rthumb 10.1842 -35.1795
lclavicle -4.14715e-014 1.8487e-014
lhumerus -29.7279 -9.61096 72.0367
lradius 62.0637
lwrist 9.67975
lhand -24.2913 -16.0306
lfingers 7.12502
lthumb 2.19603 13.9379
rfemur -62.0973 -5.86127 13.4061
rtibia 83.5258
rfoot 21.5898 -8.66042
rtoes 8.91826
lfemur 13.3103 -4.06148 -22.0852
ltibia 20.7896
lfoot 11.8889 16.4847
ltoes -25.3525
